<svg
    xmlns="http://www.w3.org/2000/svg"
    viewBox="0 0 300 300"
    width="300"
    height="300"
>
    <!-- Body -->
    <path
        d="M80 220 C40 180, 60 120, 120 110 C140 100, 180 100, 220 130 C260 160, 260 200, 240 230 C220 260, 140 250, 100 240 Z"
        fill="#8B5A2B"
    />

    <!-- Head -->
    <path
        d="M180 130 C200 90, 250 110, 230 160 C210 180, 190 160, 180 130"
        fill="#8B5A2B"
    />

    <!-- Eyes -->
    <circle cx="210" cy="140" r="8" fill="#000" />
    <circle cx="213" cy="137" r="3" fill="#FFF" />

    <!-- Nose -->
    <ellipse cx="235" cy="150" rx="4" ry="6" fill="#000" />

    <!-- Mouth -->
    <path
        d="M230 160 C232 165, 238 165, 240 160"
        stroke="#000"
        stroke-width="2"
        fill="none"
    />

    <!-- Ears -->
    <path
        d="M200 120 C205 105, 215 105, 210 130"
        fill="#8B5A2B"
    />
    <path
        d="M180 120 C185 105, 195 105, 190 130"
        fill="#8B5A2B"
    />

    <!-- Legs -->
    <path
        d="M110 220 L100 250 C105 255, 115 255, 120 250 L130 220 Z"
        fill="#8B5A2B"
    />
    <path
        d="M160 220 L150 250 C155 255, 165 255, 170 250 L180 220 Z"
        fill="#8B5A2B"
    />
    <path
        d="M210 220 L200 250 C205 255, 215 255, 220 250 L230 220 Z"
        fill="#8B5A2B"
    />

    <!-- Tail -->
    <ellipse cx="90" cy="230" rx="8" ry="4" fill="#8B5A2B" />

    <!-- Details -->
    <path
        d="M210 135 Q220 140, 210 145"
        stroke="#000"
        stroke-width="2"
        fill="none"
    />
</svg>
